<svg xmlns="http://www.w3.org/2000/svg" viewBox="0 0 48 48">
  <defs>
    <linearGradient id="attentiveGradient" x1="0%" y1="0%" x2="100%" y2="100%">
      <stop offset="0%" style="stop-color:#6366F1;stop-opacity:1" />
      <stop offset="100%" style="stop-color:#8B5CF6;stop-opacity:1" />
    </linearGradient>
  </defs>
  <rect width="48" height="48" rx="8" fill="url(#attentiveGradient)"/>
  <path d="M24 10C16.268 10 10 16.268 10 24s6.268 14 14 14 14-6.268 14-14S31.732 10 24 10zm0 4c5.523 0 10 4.477 10 10s-4.477 10-10 10-10-4.477-10-10 4.477-10 10-10z" fill="white" fill-opacity="0.3"/>
  <path d="M24 16c-4.418 0-8 3.582-8 8s3.582 8 8 8 8-3.582 8-8-3.582-8-8-8zm0 3c2.761 0 5 2.239 5 5s-2.239 5-5 5-5-2.239-5-5 2.239-5 5-5z" fill="white" fill-opacity="0.6"/>
  <circle cx="24" cy="24" r="4" fill="white"/>
  <path d="M32 12l4 4M36 12l-4 4" stroke="white" stroke-width="2" stroke-linecap="round"/>
</svg>
